<?xml version="1.0" standalone="no"?>
<!DOCTYPE svg PUBLIC "-//W3C//DTD SVG 20010904//EN"
 "http://www.w3.org/TR/2001/REC-SVG-20010904/DTD/svg10.dtd">
<svg version="1.0" xmlns="http://www.w3.org/2000/svg"
 width="512.000000pt" height="512.000000pt" viewBox="0 0 512.000000 512.000000"
 preserveAspectRatio="xMidYMid meet">
<metadata>
Created by potrace 1.11, written by Peter Selinger 2001-2013
</metadata>
<g transform="translate(0.000000,512.000000) scale(0.100000,-0.100000)"
fill="#000000" stroke="none">
<path d="M4960 5073 c-242 -7 -549 -39 -760 -79 -1042 -195 -1994 -700 -2726
-1445 -537 -548 -950 -1215 -1191 -1924 -174 -516 -258 -972 -276 -1517 l-4
-108 217 0 217 0 6 178 c34 956 396 1924 1011 2697 631 794 1497 1360 2476
1619 319 84 603 127 968 147 l222 12 0 107 c0 59 -3 155 -7 213 l-6 107 -31
-2 c-17 -1 -69 -3 -116 -5z"/>
<path d="M155 4586 c-75 -28 -120 -114 -95 -181 17 -46 48 -74 130 -116 111
-57 130 -77 130 -141 0 -87 -99 -132 -208 -94 -40 14 -40 14 -46 -10 -9 -34
-4 -39 49 -54 158 -44 298 61 271 204 -10 54 -49 92 -148 142 -101 53 -128 87
-111 140 15 47 64 66 149 60 68 -5 72 -4 78 17 3 12 1 26 -4 31 -16 16 -152
18 -195 2z"/>
<path d="M615 4586 c-34 -10 -40 -15 -37 -36 2 -14 6 -27 7 -29 2 -2 27 2 55
9 95 23 156 -10 167 -88 10 -78 -33 -161 -164 -311 -51 -59 -83 -105 -83 -118
0 -23 1 -23 165 -23 l165 0 0 30 0 30 -120 0 c-66 0 -120 2 -120 5 0 3 39 49
86 103 47 53 99 125 116 159 26 54 30 71 26 125 -4 75 -25 109 -84 138 -46 23
-117 25 -179 6z"/>
<path d="M1120 4291 l0 -301 30 0 29 0 3 133 3 132 81 6 c92 7 128 24 164 76
31 46 33 123 5 172 -33 56 -83 75 -207 79 l-108 4 0 -301z m194 225 c42 -18
66 -51 66 -94 0 -70 -46 -102 -145 -102 l-55 0 0 98 c0 54 3 102 7 105 11 12
93 7 127 -7z"/>
<path d="M1620 4291 l0 -301 79 0 c130 0 205 39 257 132 27 50 29 60 29 163 0
125 -16 175 -75 232 -52 51 -95 66 -197 71 l-93 4 0 -301z m186 220 c51 -23
80 -59 99 -124 28 -96 11 -215 -41 -276 -30 -36 -98 -64 -145 -59 l-34 3 -3
225 c-1 123 0 230 2 237 8 19 75 16 122 -6z"/>
<path d="M4830 3399 c-143 -12 -406 -55 -548 -90 -473 -116 -967 -365 -1336
-673 -416 -347 -724 -742 -950 -1216 -176 -372 -293 -829 -311 -1220 -3 -69
-8 -142 -11 -162 l-4 -38 444 0 444 0 6 31 c3 17 6 62 6 100 0 77 20 222 51
374 98 470 338 908 693 1261 386 385 838 620 1373 714 92 16 315 37 421 40 9
0 12 96 12 445 l0 445 -97 -1 c-54 -1 -141 -5 -193 -10z"/>
<path d="M4450 1189 c-9 -15 -8 -24 1 -35 28 -33 80 -3 59 35 -6 12 -19 21
-30 21 -11 0 -24 -9 -30 -21z"/>
<path d="M3000 956 c0 -154 4 -247 10 -251 6 -3 19 -3 30 0 19 6 20 16 21 208
l0 202 33 -90 c31 -84 35 -90 63 -93 30 -3 31 -1 66 95 l36 98 0 -207 c1 -128
5 -209 11 -213 6 -3 19 -3 30 0 20 6 20 14 18 248 l-3 242 -39 0 -39 0 -36
-102 c-20 -56 -38 -104 -41 -106 -3 -3 -23 44 -44 104 l-40 109 -38 0 -38 0 0
-244z"/>
<path d="M3965 1065 c-22 -8 -41 -15 -42 -15 -1 0 -10 -14 -18 -31 -29 -56 6
-119 74 -135 54 -13 121 -47 126 -65 20 -62 -71 -94 -182 -63 -19 5 -23 2 -23
-19 0 -29 20 -37 101 -37 102 0 159 40 159 111 0 49 -37 85 -109 105 -71 20
-101 39 -101 64 0 35 43 53 115 48 57 -3 66 -2 71 15 3 10 3 21 0 24 -13 14
-133 12 -171 -2z"/>
<path d="M4833 1061 c-105 -48 -135 -208 -56 -302 35 -41 79 -59 145 -59 77 0
98 8 98 36 0 27 1 27 -59 13 -142 -32 -231 143 -125 249 33 33 35 34 107 31
66 -4 72 -2 72 16 0 37 -113 47 -182 16z"/>
<path d="M3453 1054 c-10 -26 3 -278 17 -305 7 -15 23 -32 36 -39 32 -18 105
-7 143 19 30 22 31 22 31 2 0 -25 14 -34 40 -26 19 6 20 15 20 186 l0 179 -30
0 -30 0 0 -134 0 -135 -34 -26 c-45 -34 -93 -36 -118 -5 -15 19 -18 41 -18
161 l0 139 -25 0 c-14 0 -28 -7 -32 -16z"/>
<path d="M4342 1048 c3 -20 10 -23 56 -26 l52 -3 0 -154 c0 -93 4 -156 10
-160 6 -3 19 -3 30 0 19 6 20 15 20 186 l0 179 -86 0 c-83 0 -85 -1 -82 -22z"/>
</g>
</svg>
